#!OML:ASF F:\VICON\USERDATA\INSTALL\rory3\rory3.ASF
:FULLY-SPECIFIED
:DEGREES
313
root -2.04518 18.1198 4.44434 -1.5568 -44.6081 -1.46306
lowerback 11.5446 0.922074 1.57249
upperback 1.30544 1.44834 0.946892
thorax -5.09206 0.679064 -0.12292
lowerneck -19.8664 -5.06391 -10.4806
upperneck 25.8485 -6.20348 7.80869
head 12.4575 -2.84694 3.69885
rclavicle -3.66261e-014 1.17283e-014
rhumerus -35.8939 -13.46 -78.6101
rradius 29.5137
rwrist 11.1438
rhand -10.8443 8.44089
rfingers 7.12502
rthumb 15.1705 -20.983
lclavicle -3.66261e-014 1.17283e-014
lhumerus -33.4296 4.0293 83.2462
lradius 30.5742
lwrist -11.218
lhand -13.4796 25.8325
lfingers 7.12502
lthumb 12.6309 55.4306
rfemur -7.32435 4.84834 26.8814
rtibia 31.5151
rfoot -16.6813 -7.66188
rtoes 7.97221
lfemur -18.5193 2.27328 -17.4101
ltibia 57.4406
lfoot -4.83579 -2.6835
ltoes -5.43132
314
root -2.13933 18.1109 4.5303 -1.34083 -44.7242 -1.71324
lowerback 11.6545 1.04489 1.63902
upperback 1.19712 1.63159 1.06373
thorax -5.2665 0.767303 -0.0702775
lowerneck -19.7001 -5.06744 -10.5364
upperneck 25.915 -6.17654 7.68652
head 12.4451 -2.86098 3.66838
rclavicle 4.39314e-014 -2.08724e-014
rhumerus -35.6923 -13.3346 -78.4001
rradius 29.5518
rwrist 11.1692
rhand -10.8362 8.83686
rfingers 7.12502
rthumb 15.1783 -20.5865
lclavicle 4.39314e-014 -2.08724e-014
lhumerus -33.7946 4.02457 83.4045
lradius 30.5945
lwrist -10.7915
lhand -13.9586 25.672
lfingers 7.12502
lthumb 12.169 55.298
rfemur -6.82624 4.61795 27.1271
rtibia 31.322
rfoot -17.0139 -7.50479
rtoes 8.0474
lfemur -19.2438 2.32276 -17.3386
ltibia 56.3692
lfoot -5.19929 -2.06028
ltoes -4.89698
315
root -2.23344 18.1075 4.61672 -1.13714 -44.8188 -1.91424
lowerback 11.7412 1.19171 1.59086
upperback 1.09103 1.83624 1.26082
thorax -5.43237 0.869401 0.12731
lowerneck -19.5876 -5.06949 -10.5298
upperneck 26.0157 -6.0667 7.24885
head 12.4348 -2.87089 3.51907
rclavicle -6.08778e-015 -5.1684e-015
rhumerus -35.4969 -12.8978 -78.1732
rradius 29.7193
rwrist 10.8883
rhand -10.84 9.02778
rfingers 7.12502
rthumb 15.1746 -20.3958
lclavicle -6.08778e-015 -5.1684e-015
lhumerus -34.1521 4.01518 83.7224
lradius 30.6776
lwrist -10.5356
lhand -14.025 25.8354
lfingers 7.12502
lthumb 12.105 55.4652
rfemur -6.30561 4.5422 27.3316
rtibia 31.0785
rfoot -17.1723 -7.46829
rtoes 7.45554
lfemur -19.9166 2.21112 -17.2856
ltibia 55.1292
lfoot -5.69022 -1.43373
ltoes -4.14186
316
root -2.32537 18.104 4.70048 -0.880309 -44.8728 -2.14362
lowerback 11.8025 1.3097 1.68308
upperback 1.0295 2.01296 1.34629
thorax -5.53013 0.954022 0.13416
lowerneck -19.605 -5.06499 -10.5767
upperneck 26.1069 -6.01427 7.14061
head 12.4672 -2.86661 3.49583
rclavicle -2.27857e-014 -2.38542e-015
rhumerus -35.2842 -12.4122 -78.1955
rradius 30.0905
rwrist 10.51
rhand -10.9016 8.69968
rfingers 7.12502
rthumb 15.1153 -20.7284
lclavicle -2.27857e-014 -2.38542e-015
lhumerus -34.3664 3.94037 83.8654
lradius 30.7276
lwrist -10.2739
lhand -14.0749 25.8813
lfingers 7.12502
lthumb 12.0569 55.5139
rfemur -5.79102 4.55565 27.5692
rtibia 30.7647
rfoot -17.3711 -7.53411
rtoes 7.41684
lfemur -20.6041 2.11506 -17.2036
ltibia 53.7449
lfoot -6.40256 -0.768106
ltoes -3.7006
317
root -2.41594 18.1011 4.78672 -0.569981 -44.9022 -2.36538
lowerback 11.6965 1.38289 1.99346
upperback 1.03278 2.14222 1.25164
thorax -5.45138 1.01023 -0.157503
lowerneck -19.7275 -5.06501 -10.5056
upperneck 26.1476 -6.05489 7.23559
head 12.5131 -2.86266 3.5136
rclavicle -8.14769e-014 -4.37326e-015
rhumerus -34.896 -12.6279 -78.2428
rradius 30.2345
rwrist 10.5963
rhand -10.8439 9.02786
rfingers 7.12502
rthumb 15.1709 -20.396
lclavicle -8.14769e-014 -4.37326e-015
lhumerus -34.4778 3.88523 83.689
lradius 30.8373
lwrist -10.2969
lhand -13.9094 25.816
lfingers 7.12502
lthumb 12.2165 55.4392
rfemur -5.28263 4.5211 27.7793
rtibia 30.3352
rfoot -17.6708 -7.46657
rtoes 8.11567
lfemur -21.2894 2.08941 -17.1211
ltibia 52.222
lfoot -6.9793 -0.260766
ltoes -3.26071
318
root -2.50621 18.0997 4.87562 -0.347654 -44.9068 -2.51739
lowerback 11.513 1.36116 2.42015
upperback 1.10671 2.14852 1.04266
thorax -5.2471 1.00458 -0.610555
lowerneck -19.9057 -4.95521 -10.1173
upperneck 26.1656 -5.94426 7.03102
head 12.5219 -2.7966 3.38637
rclavicle -5.15846e-014 -2.38542e-015
rhumerus -34.3904 -13.0422 -78.4123
rradius 30.2989
rwrist 10.9092
rhand -10.7131 9.8218
rfingers 7.12502
rthumb 15.2969 -19.5925
lclavicle -5.15846e-014 -2.38542e-015
lhumerus -34.5515 3.79706 83.3667
lradius 31.0362
lwrist -10.3373
lhand -13.6235 26.3435
lfingers 7.12502
lthumb 12.4921 55.9501
rfemur -4.68349 4.62693 27.9603
rtibia 29.8725
rfoot -18.0214 -7.51293
rtoes 9.47622
lfemur -21.8791 2.03307 -17.1117
ltibia 50.5435
lfoot -7.48432 0.294923
ltoes -3.78723
319
root -2.59817 18.1097 4.9657 -0.0926721 -44.9808 -2.68456
lowerback 11.5456 1.43921 2.47193
upperback 1.01489 2.26746 1.12515
thorax -5.36031 1.06083 -0.574416
lowerneck -20.0691 -4.80077 -9.79131
upperneck 26.3752 -5.66464 6.50541
head 12.5799 -2.70664 3.17819
rclavicle 1.56791e-014 0
rhumerus -34.1257 -12.8549 -78.2892
rradius 30.5419
rwrist 10.6012
rhand -10.7503 9.70679
rfingers 7.12502
rthumb 15.2611 -19.7102
lclavicle 1.56791e-014 0
lhumerus -34.8777 3.67015 83.5281
lradius 31.165
lwrist -10.2517
lhand -13.5635 26.4918
lfingers 7.12502
lthumb 12.55 56.0949
rfemur -4.06334 4.6895 28.1198
rtibia 29.3188
rfoot -18.2013 -7.45881
rtoes 10.0258
lfemur -22.447 2.02614 -17.1396
ltibia 48.7248
lfoot -7.83715 1.04304
ltoes -6.13957
320
root -2.68972 18.1049 5.05525 0.240626 -45.1228 -2.9357
lowerback 11.4095 1.53823 2.72111
upperback 1.02944 2.42331 1.09103
thorax -5.25324 1.1333 -0.769691
lowerneck -20.2561 -4.73406 -9.56734
upperneck 26.4555 -5.58846 6.37526
head 12.6299 -2.66375 3.10293
rclavicle 3.40419e-014 -6.55989e-015
rhumerus -33.7954 -12.5908 -78.4857
rradius 30.974
rwrist 10.0128
rhand -10.8536 9.67093
rfingers 7.12502
rthumb 15.1615 -19.7536
lclavicle 3.40419e-014 -6.55989e-015
lhumerus -34.9703 3.58936 83.4815
lradius 31.1813
lwrist -10.3237
lhand -13.7784 25.9754
lfingers 7.12502
lthumb 12.3428 55.5911
rfemur -3.47835 4.60692 28.3152
rtibia 28.7313
rfoot -18.2589 -7.36262
rtoes 9.54382
lfemur -22.8384 1.76435 -16.9798
ltibia 46.7391
lfoot -8.08423 1.53179
ltoes -5.3364
321
root -2.7805 18.1078 5.14487 0.564092 -45.1634 -3.19966
lowerback 11.3246 1.5968 3.03491
upperback 1.0054 2.5357 1.04593
thorax -5.21203 1.18187 -1.0076
lowerneck -20.2109 -4.77363 -9.601
upperneck 26.4088 -5.66516 6.47152
head 12.614 -2.68865 3.13225
rclavicle 1.61016e-014 -1.49089e-014
rhumerus -33.6091 -12.3946 -78.5851
rradius 31.4268
rwrist 9.55181
rhand -10.5231 10.412
rfingers 7.12502
rthumb 15.4799 -18.9882
lclavicle 1.61016e-014 -1.49089e-014
lhumerus -35.1035 3.65078 83.363
lradius 31.1866
lwrist -10.57
lhand -13.8047 25.6285
lfingers 7.12502
lthumb 12.3174 55.2457
rfemur -2.86319 4.64287 28.5528
rtibia 28.1452
rfoot -18.4734 -7.48295
rtoes 9.6831
lfemur -23.2063 1.44632 -16.8137
ltibia 44.6248
lfoot -8.27737 1.9988
ltoes -4.58837
322
root -2.86963 18.1092 5.23396 0.92974 -45.1522 -3.47925
lowerback 11.269 1.60827 3.30903
upperback 0.965819 2.58507 1.06023
thorax -5.20949 1.20001 -1.15263
lowerneck -20.209 -4.80687 -9.75034
upperneck 26.3512 -5.68837 6.57321
head 12.6018 -2.69983 3.19197
rclavicle 2.96686e-014 -1.39149e-015
rhumerus -33.2721 -12.4115 -78.5442
rradius 31.6693
rwrist 9.45416
rhand -10.3903 10.8999
rfingers 7.12502
rthumb 15.6078 -18.4905
lclavicle 2.96686e-014 -1.39149e-015
lhumerus -35.2056 3.67663 83.3657
lradius 31.1352
lwrist -10.6654
lhand -14.0029 25.8936
lfingers 7.12502
lthumb 12.1263 55.5222
rfemur -2.32732 4.73416 28.8288
rtibia 27.6313
rfoot -18.6498 -7.70707
rtoes 9.74196
lfemur -23.5423 1.05371 -16.601
ltibia 42.3592
lfoot -8.29998 2.38395
ltoes -3.96953
323
root -2.95851 18.1057 5.32181 1.25285 -45.2351 -3.62198
lowerback 11.1993 1.65298 3.40346
upperback 0.902025 2.65636 1.07014
thorax -5.231 1.23237 -1.20473
lowerneck -20.2501 -4.79837 -9.82772
upperneck 26.2705 -5.6361 6.56803
head 12.5753 -2.68288 3.21025
rclavicle -7.57867e-014 5.1684e-015
rhumerus -32.8897 -12.2079 -78.6216
rradius 31.9265
rwrist 9.11769
rhand -10.6865 10.5372
rfingers 7.12502
rthumb 15.3224 -18.8752
lclavicle -7.57867e-014 5.1684e-015
lhumerus -35.3867 3.59596 83.4244
lradius 31.158
lwrist -10.6145
lhand -13.9365 26.4048
lfingers 7.12502
lthumb 12.1903 56.0296
rfemur -1.87038 4.85944 28.9913
rtibia 27.1144
rfoot -18.6028 -7.8825
rtoes 9.37249
lfemur -23.7863 0.497204 -16.3875
ltibia 39.9705
lfoot -8.04798 2.75271
ltoes -1.24738
324
root -3.04771 18.1036 5.41417 1.53663 -45.4191 -3.78602
lowerback 11.1386 1.75275 3.51119
upperback 0.878146 2.80147 1.09194
thorax -5.212 1.30177 -1.26225
lowerneck -20.4265 -4.82181 -9.89202
upperneck 26.2884 -5.62247 6.5524
head 12.619 -2.68133 3.21618
rclavicle 6.01324e-015 1.98785e-015
rhumerus -32.5704 -11.7644 -78.7261
rradius 32.3677
rwrist 8.46643
rhand -10.8667 10.1957
rfingers 7.12502
rthumb 15.1489 -19.2298
lclavicle 6.01324e-015 1.98785e-015
lhumerus -35.5656 3.58435 83.4838
lradius 31.1735
lwrist -10.6175
lhand -13.8576 26.6628
lfingers 7.12502
lthumb 12.2664 56.2831
rfemur -1.35457 4.93812 29.1347
rtibia 26.6535
rfoot -18.5324 -7.94517
rtoes 8.2142
lfemur -23.8732 -0.117324 -16.1188
ltibia 37.4521
lfoot -7.91679 3.14907
ltoes 5.91831
325
root -3.13891 18.1073 5.50737 1.78586 -45.6063 -3.795
lowerback 10.9698 1.86476 3.52323
upperback 0.825384 2.94483 1.05802
thorax -5.16441 1.37275 -1.32016
lowerneck -20.5213 -4.83321 -9.88099
upperneck 26.3422 -5.61321 6.48346
head 12.6564 -2.68355 3.18923
rclavicle 4.32854e-014 -1.78906e-015
rhumerus -32.2862 -11.8293 -78.6564
rradius 32.6548
rwrist 8.42138
rhand -10.6423 10.4679
rfingers 7.12502
rthumb 15.365 -18.9412
lclavicle 4.32854e-014 -1.78906e-015
lhumerus -35.7799 3.74198 83.4382
lradius 31.1352
lwrist -10.8659
lhand -14.4429 26.0958
lfingers 7.12502
lthumb 11.702 55.749
rfemur -0.94432 5.00753 29.1412
rtibia 26.2697
rfoot -18.3046 -7.76259
rtoes 8.16675
lfemur -24.0438 -0.460397 -16.0932
ltibia 34.8191
lfoot -7.56309 3.76722
ltoes 0.907849
326
root -3.23065 18.108 5.59785 2.02719 -45.7565 -3.71771
lowerback 10.7597 1.99507 3.4385
upperback 0.744062 3.1 1.0142
thorax -5.12742 1.45146 -1.33426
lowerneck -20.5002 -4.86057 -9.90721
upperneck 26.3047 -5.64105 6.47863
head 12.6408 -2.69875 3.18632
rclavicle 3.48122e-014 7.95139e-016
rhumerus -32.0403 -11.9443 -78.5593
rradius 32.948
rwrist 8.45304
rhand -10.5819 10.5992
rfingers 7.12502
rthumb 15.4232 -18.8054
lclavicle 3.48122e-014 7.95139e-016
lhumerus -35.8809 3.76359 83.4299
lradius 30.9534
lwrist -10.9866
lhand -14.6065 25.7071
lfingers 7.12502
lthumb 11.5443 55.3692
rfemur -0.59433 4.98618 29.0726
rtibia 25.8694
rfoot -18.0571 -7.47139
rtoes 8.26203
lfemur -24.2423 -0.838116 -16.123
ltibia 32.1407
lfoot -7.05508 4.31749
ltoes -4.37575
327
root -3.31988 18.1012 5.68967 2.26796 -45.8233 -3.78008
lowerback 10.6732 2.0608 3.50404
upperback 0.717503 3.19143 0.993608
thorax -5.09811 1.4954 -1.40236
lowerneck -20.5412 -4.9078 -10.0098
upperneck 26.1966 -5.68376 6.55478
head 12.6166 -2.7152 3.22332
rclavicle 9.85227e-014 4.77083e-015
rhumerus -31.8097 -11.7247 -78.5793
rradius 33.4275
rwrist 8.1929
rhand -10.7897 10.3414
rfingers 7.12502
rthumb 15.2231 -19.0785
lclavicle 9.85227e-014 4.77083e-015
lhumerus -35.8456 3.51742 83.4806
lradius 30.81
lwrist -10.8224
lhand -14.0709 25.9449
lfingers 7.12502
lthumb 12.0608 55.5773
rfemur -0.157069 4.9151 29.1295
rtibia 25.4776
rfoot -18.1718 -7.6772
rtoes 6.40699
lfemur -24.2659 -1.56368 -15.9249
ltibia 29.4645
lfoot -6.90837 4.79071
ltoes -3.31711
